<svg xmlns="http://www.w3.org/2000/svg" xmlns:xlink="http://www.w3.org/1999/xlink" width="500" zoomAndPan="magnify" viewBox="0 0 375 374.999991" height="500" preserveAspectRatio="xMidYMid meet" version="1.0"><defs><g/><clipPath id="b05a288155"><path d="M 96 172 L 296.867188 172 L 296.867188 229 L 96 229 Z M 96 172 " clip-rule="nonzero"/></clipPath><clipPath id="d38f7ba618"><path d="M 166 71.253906 L 190 71.253906 L 190 104 L 166 104 Z M 166 71.253906 " clip-rule="nonzero"/></clipPath><clipPath id="49995c4073"><path d="M 88 88 L 146 88 L 146 152 L 88 152 Z M 88 88 " clip-rule="nonzero"/></clipPath><clipPath id="90913a9c4d"><path d="M 78.574219 111.523438 L 133.738281 82.425781 L 164.65625 141.039062 L 109.492188 170.140625 Z M 78.574219 111.523438 " clip-rule="nonzero"/></clipPath><clipPath id="091751662a"><path d="M 78.574219 111.523438 L 133.738281 82.425781 L 164.65625 141.039062 L 109.492188 170.140625 Z M 78.574219 111.523438 " clip-rule="nonzero"/></clipPath></defs><path fill="#dad3f1" d="M 179.074219 104.800781 C 179.074219 104.800781 166.1875 119.75 177.355469 127.824219 C 188.523438 135.898438 207.242188 126.765625 205.535156 115.453125 C 203.828125 104.136719 186.636719 101.191406 179.074219 104.800781 Z M 179.074219 104.800781 " fill-opacity="1" fill-rule="evenodd"/><path fill="#dad3f1" d="M 271.164062 212.867188 C 271.164062 212.867188 244.015625 248.605469 237.660156 276.265625 C 232.335938 280.734375 146.257812 286.402344 146.257812 286.402344 C 146.257812 286.402344 164.8125 226.785156 271.164062 212.867188 Z M 271.164062 212.867188 " fill-opacity="1" fill-rule="evenodd"/><path fill="#dad3f1" d="M 159.246094 218.601562 C 200.105469 207.816406 229.296875 139.238281 281.363281 188.457031 C 281.363281 188.457031 256.597656 186.632812 254.363281 188.519531 C 252.128906 190.402344 193.648438 211.921875 190.289062 212.21875 C 186.925781 212.519531 159.246094 218.601562 159.246094 218.601562 Z M 159.246094 218.601562 " fill-opacity="1" fill-rule="evenodd"/><path fill="#dad3f1" d="M 145.367188 200.488281 C 183.839844 183.003906 215.4375 108.152344 260.371094 158.101562 C 260.371094 158.101562 243.332031 154.882812 241.441406 157.117188 C 239.550781 159.347656 178.902344 190.445312 175.636719 191.304688 C 172.375 192.164062 145.367188 200.488281 145.367188 200.488281 Z M 145.367188 200.488281 " fill-opacity="1" fill-rule="evenodd"/><g clip-path="url(#b05a288155)"><path fill="#2d3c5c" d="M 125.75 172.933594 C 125.65625 172.980469 93.09375 190.320312 111.523438 211.917969 C 127.707031 230.886719 162.5625 217.824219 189.148438 207.859375 C 199.679688 203.910156 210.257812 200.445312 220.847656 196.695312 C 245.957031 187.785156 289.828125 164.898438 296.285156 206.175781 C 291.765625 177.835938 237.921875 199.949219 223.765625 204.972656 C 213.226562 208.710938 202.691406 212.136719 192.207031 216.070312 C 79.4375 258.335938 78.707031 178.753906 125.75 172.933594 Z M 125.75 172.933594 " fill-opacity="1" fill-rule="nonzero"/></g><path fill="#2d3c5c" d="M 275.167969 178.296875 C 275.117188 178.226562 257.484375 155.03125 232.320312 163.929688 C 222.429688 167.425781 209.3125 175.53125 195.589844 184.003906 C 175.082031 196.671875 148.207031 218.394531 122.210938 204.21875 C 135.578125 208.421875 167.609375 190.988281 190.988281 176.550781 C 205.152344 167.800781 218.695312 159.4375 229.398438 155.648438 C 247.460938 149.257812 268.054688 155.476562 275.167969 178.296875 Z M 275.167969 178.296875 " fill-opacity="1" fill-rule="nonzero"/><path fill="#2d3c5c" d="M 254.621094 145.429688 C 254.550781 145.355469 230.082031 121.199219 202.511719 141.335938 C 190.171875 150.347656 180.019531 159.441406 171.335938 167.210938 C 161.902344 175.65625 144.027344 187.65625 132.570312 183.15625 C 140.328125 181.570312 153.414062 171.5 165.496094 160.683594 C 174.308594 152.789062 184.617188 143.5625 197.355469 134.261719 C 215.863281 120.738281 244.621094 122.320312 254.621094 145.429688 Z M 254.621094 145.429688 " fill-opacity="1" fill-rule="nonzero"/><path fill="#2d3c5c" d="M 188.453125 141.109375 C 222.382812 109.953125 168.363281 90.402344 165.902344 128.65625 C 150.277344 83.035156 244.34375 89.058594 194.910156 147.019531 Z M 188.453125 141.109375 " fill-opacity="1" fill-rule="nonzero"/><path fill="#2d3c5c" d="M 282.585938 207.554688 C 282.585938 207.554688 258.53125 257.035156 254.40625 294.148438 C 254.40625 294.148438 180.183594 303.769531 143.074219 294.148438 C 143.074219 294.148438 127.925781 261.480469 127.613281 234.015625 C 127.613281 234.015625 142.902344 279.886719 149.433594 284.007812 C 160.253906 285.214844 224.683594 289.164062 245.304688 282.980469 C 252.519531 258.066406 258.53125 239.855469 282.585938 207.554688 Z M 282.585938 207.554688 " fill-opacity="1" fill-rule="evenodd"/><path fill="#2d3c5c" d="M 184.320312 290.175781 C 178.476562 281.960938 167.996094 234.164062 167.996094 234.164062 C 166.621094 250.144531 175.554688 290.863281 175.554688 290.863281 Z M 184.320312 290.175781 " fill-opacity="1" fill-rule="evenodd"/><path fill="#2d3c5c" d="M 212.496094 290.347656 C 212.496094 290.347656 220.742188 233.824219 232.597656 212.175781 C 232.597656 212.175781 219.195312 276.261719 221.085938 292.582031 L 214.472656 293.011719 Z M 212.496094 290.347656 " fill-opacity="1" fill-rule="evenodd"/><g clip-path="url(#d38f7ba618)"><path fill="#2d3c5c" d="M 167.601562 77.269531 C 166.292969 76.011719 166.25 73.933594 167.511719 72.621094 C 168.769531 71.3125 170.851562 71.273438 172.160156 72.53125 C 172.199219 72.566406 185.371094 85.382812 189.039062 98.960938 C 189.511719 100.71875 188.46875 102.527344 186.710938 102.996094 C 184.953125 103.46875 183.148438 102.421875 182.675781 100.664062 C 179.476562 88.820312 167.632812 77.304688 167.601562 77.269531 Z M 167.601562 77.269531 " fill-opacity="1" fill-rule="nonzero"/></g><g clip-path="url(#49995c4073)"><g clip-path="url(#90913a9c4d)"><g clip-path="url(#091751662a)"><path fill="#e598aa" d="M 119.273438 149.882812 C 108.730469 147.78125 98.371094 142.972656 91.578125 134.636719 C 89.96875 132.664062 88.511719 130.265625 88.832031 127.738281 C 89.242188 124.484375 92.464844 122.292969 95.636719 121.453125 C 104.863281 119.011719 114.179688 124.320312 122.246094 129.417969 C 119.128906 124.300781 115.976562 119.109375 114.300781 113.355469 C 112.628906 107.601562 112.582031 101.117188 115.507812 95.882812 C 118.429688 90.652344 124.777344 87.144531 130.570312 88.683594 C 137.542969 90.539062 141.105469 98.492188 141.523438 105.695312 C 142.027344 114.269531 139.484375 122.742188 139.289062 131.328125 C 139.207031 134.976562 139.671875 138.726562 140.882812 142.179688 C 141.953125 145.230469 145.09375 148.320312 145.105469 151.285156 C 136.988281 152.617188 127.308594 151.484375 119.273438 149.882812 Z M 119.273438 149.882812 " fill-opacity="1" fill-rule="nonzero"/></g></g></g><g fill="#2d3c5c" fill-opacity="1"><g transform="translate(31.223865, 338.494401)"><g><path d="M 29.4375 -29.046875 C 30.15625 -28.910156 30.695312 -28.664062 31.0625 -28.3125 C 31.425781 -27.96875 31.609375 -27.5625 31.609375 -27.09375 C 31.609375 -26.320312 31.390625 -25.757812 30.953125 -25.40625 C 30.523438 -25.0625 29.84375 -24.921875 28.90625 -24.984375 C 26.8125 -25.148438 25.171875 -25.257812 23.984375 -25.3125 C 22.804688 -25.375 21.265625 -25.414062 19.359375 -25.4375 C 18.492188 -21.144531 17.695312 -16.832031 16.96875 -12.5 C 16.71875 -10.90625 16.453125 -9.0625 16.171875 -6.96875 C 15.890625 -4.882812 15.703125 -3.203125 15.609375 -1.921875 C 15.566406 -1.242188 15.285156 -0.722656 14.765625 -0.359375 C 14.253906 -0.00390625 13.640625 0.171875 12.921875 0.171875 C 12.148438 0.171875 11.550781 -0.0078125 11.125 -0.375 C 10.707031 -0.75 10.5 -1.242188 10.5 -1.859375 C 10.5 -2.410156 10.585938 -3.332031 10.765625 -4.625 C 10.941406 -5.925781 11.144531 -7.289062 11.375 -8.71875 C 11.632812 -10.132812 11.832031 -11.367188 11.96875 -12.421875 C 12.226562 -14.191406 12.519531 -15.953125 12.84375 -17.703125 C 13.164062 -19.453125 13.492188 -21.113281 13.828125 -22.6875 C 13.898438 -23.03125 13.976562 -23.425781 14.0625 -23.875 C 14.15625 -24.332031 14.265625 -24.84375 14.390625 -25.40625 C 12.097656 -25.34375 10.296875 -25.15625 8.984375 -24.84375 C 7.679688 -24.539062 6.753906 -24.113281 6.203125 -23.5625 C 5.660156 -23.019531 5.390625 -22.316406 5.390625 -21.453125 C 5.390625 -20.660156 5.625 -19.90625 6.09375 -19.1875 C 6.1875 -19.019531 6.234375 -18.84375 6.234375 -18.65625 C 6.234375 -18.207031 5.96875 -17.789062 5.4375 -17.40625 C 4.914062 -17.019531 4.375 -16.828125 3.8125 -16.828125 C 3.414062 -16.828125 3.085938 -16.945312 2.828125 -17.1875 C 2.367188 -17.582031 1.984375 -18.144531 1.671875 -18.875 C 1.367188 -19.613281 1.21875 -20.453125 1.21875 -21.390625 C 1.21875 -23.367188 1.863281 -24.957031 3.15625 -26.15625 C 4.457031 -27.363281 6.429688 -28.242188 9.078125 -28.796875 C 11.734375 -29.359375 15.132812 -29.640625 19.28125 -29.640625 C 21.851562 -29.640625 23.898438 -29.59375 25.421875 -29.5 C 26.953125 -29.40625 28.289062 -29.253906 29.4375 -29.046875 Z M 29.4375 -29.046875 "/></g></g></g><g fill="#2d3c5c" fill-opacity="1"><g transform="translate(52.4638, 338.494401)"><g><path d="M 17.296875 -7.8125 C 17.597656 -7.8125 17.832031 -7.671875 18 -7.390625 C 18.175781 -7.109375 18.265625 -6.722656 18.265625 -6.234375 C 18.265625 -5.296875 18.046875 -4.570312 17.609375 -4.0625 C 16.742188 -3.007812 15.519531 -2.039062 13.9375 -1.15625 C 12.363281 -0.269531 10.679688 0.171875 8.890625 0.171875 C 6.441406 0.171875 4.539062 -0.488281 3.1875 -1.8125 C 1.832031 -3.144531 1.15625 -4.96875 1.15625 -7.28125 C 1.15625 -8.882812 1.492188 -10.378906 2.171875 -11.765625 C 2.847656 -13.160156 3.785156 -14.265625 4.984375 -15.078125 C 6.191406 -15.898438 7.550781 -16.3125 9.0625 -16.3125 C 10.414062 -16.3125 11.5 -15.90625 12.3125 -15.09375 C 13.132812 -14.289062 13.546875 -13.203125 13.546875 -11.828125 C 13.546875 -10.222656 12.96875 -8.84375 11.8125 -7.6875 C 10.65625 -6.53125 8.703125 -5.613281 5.953125 -4.9375 C 6.535156 -3.863281 7.644531 -3.328125 9.28125 -3.328125 C 10.320312 -3.328125 11.515625 -3.691406 12.859375 -4.421875 C 14.203125 -5.160156 15.363281 -6.125 16.34375 -7.3125 C 16.625 -7.644531 16.941406 -7.8125 17.296875 -7.8125 Z M 8.46875 -12.875 C 7.601562 -12.875 6.875 -12.375 6.28125 -11.375 C 5.6875 -10.375 5.390625 -9.160156 5.390625 -7.734375 L 5.390625 -7.671875 C 6.765625 -7.992188 7.847656 -8.476562 8.640625 -9.125 C 9.429688 -9.78125 9.828125 -10.539062 9.828125 -11.40625 C 9.828125 -11.851562 9.703125 -12.207031 9.453125 -12.46875 C 9.210938 -12.738281 8.882812 -12.875 8.46875 -12.875 Z M 8.46875 -12.875 "/></g></g></g><g fill="#2d3c5c" fill-opacity="1"><g transform="translate(66.215695, 338.494401)"><g><path d="M 4.171875 0.171875 C 3.273438 0.171875 2.644531 -0.289062 2.28125 -1.21875 C 1.925781 -2.15625 1.75 -3.648438 1.75 -5.703125 C 1.75 -8.734375 2.179688 -11.613281 3.046875 -14.34375 C 3.253906 -15.019531 3.597656 -15.515625 4.078125 -15.828125 C 4.554688 -16.148438 5.226562 -16.3125 6.09375 -16.3125 C 6.5625 -16.3125 6.882812 -16.25 7.0625 -16.125 C 7.25 -16.007812 7.34375 -15.789062 7.34375 -15.46875 C 7.34375 -15.09375 7.171875 -14.253906 6.828125 -12.953125 C 6.585938 -12.015625 6.398438 -11.195312 6.265625 -10.5 C 6.128906 -9.800781 6.015625 -8.9375 5.921875 -7.90625 C 6.679688 -9.914062 7.539062 -11.550781 8.5 -12.8125 C 9.457031 -14.070312 10.394531 -14.96875 11.3125 -15.5 C 12.238281 -16.039062 13.085938 -16.3125 13.859375 -16.3125 C 15.378906 -16.3125 16.140625 -15.550781 16.140625 -14.03125 C 16.140625 -13.125 15.878906 -11.476562 15.359375 -9.09375 C 14.921875 -7.070312 14.703125 -5.734375 14.703125 -5.078125 C 14.703125 -4.140625 15.039062 -3.671875 15.71875 -3.671875 C 16.1875 -3.671875 16.738281 -3.957031 17.375 -4.53125 C 18.019531 -5.101562 18.878906 -6.03125 19.953125 -7.3125 C 20.234375 -7.644531 20.546875 -7.8125 20.890625 -7.8125 C 21.191406 -7.8125 21.429688 -7.671875 21.609375 -7.390625 C 21.785156 -7.109375 21.875 -6.722656 21.875 -6.234375 C 21.875 -5.296875 21.648438 -4.570312 21.203125 -4.0625 C 20.203125 -2.820312 19.125 -1.804688 17.96875 -1.015625 C 16.8125 -0.222656 15.5 0.171875 14.03125 0.171875 C 12.84375 0.171875 11.945312 -0.171875 11.34375 -0.859375 C 10.738281 -1.546875 10.4375 -2.539062 10.4375 -3.84375 C 10.4375 -4.5 10.597656 -5.664062 10.921875 -7.34375 C 11.222656 -8.820312 11.375 -9.835938 11.375 -10.390625 C 11.375 -10.765625 11.242188 -10.953125 10.984375 -10.953125 C 10.679688 -10.953125 10.253906 -10.5625 9.703125 -9.78125 C 9.160156 -9 8.601562 -7.96875 8.03125 -6.6875 C 7.457031 -5.40625 7 -4.050781 6.65625 -2.625 C 6.394531 -1.53125 6.09375 -0.789062 5.75 -0.40625 C 5.414062 -0.0195312 4.890625 0.171875 4.171875 0.171875 Z M 4.171875 0.171875 "/></g></g></g><g fill="#2d3c5c" fill-opacity="1"><g transform="translate(83.571781, 338.494401)"><g><path d="M 17.296875 -7.8125 C 17.597656 -7.8125 17.832031 -7.671875 18 -7.390625 C 18.175781 -7.109375 18.265625 -6.722656 18.265625 -6.234375 C 18.265625 -5.296875 18.046875 -4.570312 17.609375 -4.0625 C 16.597656 -2.820312 15.5 -1.804688 14.3125 -1.015625 C 13.125 -0.222656 11.757812 0.171875 10.21875 0.171875 C 5.457031 0.171875 3.078125 -3.175781 3.078125 -9.875 C 3.078125 -10.894531 3.113281 -11.929688 3.1875 -12.984375 L 1.8125 -12.984375 C 1.113281 -12.984375 0.640625 -13.109375 0.390625 -13.359375 C 0.148438 -13.617188 0.03125 -14.03125 0.03125 -14.59375 C 0.03125 -15.90625 0.554688 -16.5625 1.609375 -16.5625 L 3.609375 -16.5625 C 4.003906 -19.125 4.609375 -21.46875 5.421875 -23.59375 C 6.242188 -25.71875 7.226562 -27.410156 8.375 -28.671875 C 9.53125 -29.929688 10.773438 -30.5625 12.109375 -30.5625 C 13.085938 -30.5625 13.859375 -30.128906 14.421875 -29.265625 C 14.984375 -28.398438 15.265625 -27.3125 15.265625 -26 C 15.265625 -22.382812 13.742188 -19.238281 10.703125 -16.5625 L 14.625 -16.5625 C 15 -16.5625 15.269531 -16.476562 15.4375 -16.3125 C 15.601562 -16.144531 15.6875 -15.84375 15.6875 -15.40625 C 15.6875 -13.789062 14.363281 -12.984375 11.71875 -12.984375 L 7.453125 -12.984375 C 7.410156 -11.816406 7.390625 -10.90625 7.390625 -10.25 C 7.390625 -7.820312 7.671875 -6.117188 8.234375 -5.140625 C 8.804688 -4.160156 9.710938 -3.671875 10.953125 -3.671875 C 11.953125 -3.671875 12.835938 -3.972656 13.609375 -4.578125 C 14.378906 -5.191406 15.289062 -6.101562 16.34375 -7.3125 C 16.625 -7.644531 16.941406 -7.8125 17.296875 -7.8125 Z M 11.171875 -27.1875 C 10.816406 -27.1875 10.421875 -26.75 9.984375 -25.875 C 9.554688 -25 9.148438 -23.785156 8.765625 -22.234375 C 8.378906 -20.691406 8.0625 -18.972656 7.8125 -17.078125 C 9.1875 -18.265625 10.21875 -19.597656 10.90625 -21.078125 C 11.59375 -22.566406 11.9375 -23.914062 11.9375 -25.125 C 11.9375 -26.5 11.679688 -27.1875 11.171875 -27.1875 Z M 11.171875 -27.1875 "/></g></g></g><g fill="#2d3c5c" fill-opacity="1"><g transform="translate(97.323676, 338.494401)"><g><path d="M 17.296875 -7.8125 C 17.597656 -7.8125 17.832031 -7.671875 18 -7.390625 C 18.175781 -7.109375 18.265625 -6.722656 18.265625 -6.234375 C 18.265625 -5.296875 18.046875 -4.570312 17.609375 -4.0625 C 16.742188 -3.007812 15.519531 -2.039062 13.9375 -1.15625 C 12.363281 -0.269531 10.679688 0.171875 8.890625 0.171875 C 6.441406 0.171875 4.539062 -0.488281 3.1875 -1.8125 C 1.832031 -3.144531 1.15625 -4.96875 1.15625 -7.28125 C 1.15625 -8.882812 1.492188 -10.378906 2.171875 -11.765625 C 2.847656 -13.160156 3.785156 -14.265625 4.984375 -15.078125 C 6.191406 -15.898438 7.550781 -16.3125 9.0625 -16.3125 C 10.414062 -16.3125 11.5 -15.90625 12.3125 -15.09375 C 13.132812 -14.289062 13.546875 -13.203125 13.546875 -11.828125 C 13.546875 -10.222656 12.96875 -8.84375 11.8125 -7.6875 C 10.65625 -6.53125 8.703125 -5.613281 5.953125 -4.9375 C 6.535156 -3.863281 7.644531 -3.328125 9.28125 -3.328125 C 10.320312 -3.328125 11.515625 -3.691406 12.859375 -4.421875 C 14.203125 -5.160156 15.363281 -6.125 16.34375 -7.3125 C 16.625 -7.644531 16.941406 -7.8125 17.296875 -7.8125 Z M 8.46875 -12.875 C 7.601562 -12.875 6.875 -12.375 6.28125 -11.375 C 5.6875 -10.375 5.390625 -9.160156 5.390625 -7.734375 L 5.390625 -7.671875 C 6.765625 -7.992188 7.847656 -8.476562 8.640625 -9.125 C 9.429688 -9.78125 9.828125 -10.539062 9.828125 -11.40625 C 9.828125 -11.851562 9.703125 -12.207031 9.453125 -12.46875 C 9.210938 -12.738281 8.882812 -12.875 8.46875 -12.875 Z M 8.46875 -12.875 "/></g></g></g><g fill="#2d3c5c" fill-opacity="1"><g transform="translate(111.07557, 338.494401)"><g><path d="M 4.171875 0.171875 C 3.273438 0.171875 2.644531 -0.289062 2.28125 -1.21875 C 1.925781 -2.15625 1.75 -3.648438 1.75 -5.703125 C 1.75 -8.734375 2.179688 -11.613281 3.046875 -14.34375 C 3.253906 -15.019531 3.597656 -15.515625 4.078125 -15.828125 C 4.554688 -16.148438 5.226562 -16.3125 6.09375 -16.3125 C 6.5625 -16.3125 6.882812 -16.25 7.0625 -16.125 C 7.25 -16.007812 7.34375 -15.789062 7.34375 -15.46875 C 7.34375 -15.09375 7.171875 -14.253906 6.828125 -12.953125 C 6.585938 -12.015625 6.398438 -11.203125 6.265625 -10.515625 C 6.128906 -9.828125 6.015625 -8.96875 5.921875 -7.9375 C 6.546875 -9.757812 7.296875 -11.300781 8.171875 -12.5625 C 9.046875 -13.820312 9.941406 -14.757812 10.859375 -15.375 C 11.785156 -16 12.65625 -16.3125 13.46875 -16.3125 C 14.289062 -16.3125 14.867188 -16.125 15.203125 -15.75 C 15.546875 -15.375 15.71875 -14.800781 15.71875 -14.03125 C 15.71875 -13.289062 15.492188 -11.9375 15.046875 -9.96875 C 14.859375 -9.132812 14.734375 -8.503906 14.671875 -8.078125 C 15.835938 -10.953125 17.128906 -13.039062 18.546875 -14.34375 C 19.972656 -15.65625 21.304688 -16.3125 22.546875 -16.3125 C 24.054688 -16.3125 24.8125 -15.550781 24.8125 -14.03125 C 24.8125 -13.125 24.554688 -11.476562 24.046875 -9.09375 C 23.597656 -7.070312 23.375 -5.734375 23.375 -5.078125 C 23.375 -4.140625 23.710938 -3.671875 24.390625 -3.671875 C 24.859375 -3.671875 25.410156 -3.957031 26.046875 -4.53125 C 26.691406 -5.101562 27.550781 -6.03125 28.625 -7.3125 C 28.90625 -7.644531 29.222656 -7.8125 29.578125 -7.8125 C 29.878906 -7.8125 30.117188 -7.671875 30.296875 -7.390625 C 30.472656 -7.109375 30.5625 -6.722656 30.5625 -6.234375 C 30.5625 -5.296875 30.335938 -4.570312 29.890625 -4.0625 C 28.890625 -2.820312 27.8125 -1.804688 26.65625 -1.015625 C 25.5 -0.222656 24.1875 0.171875 22.71875 0.171875 C 21.53125 0.171875 20.628906 -0.171875 20.015625 -0.859375 C 19.410156 -1.546875 19.109375 -2.539062 19.109375 -3.84375 C 19.109375 -4.5 19.269531 -5.664062 19.59375 -7.34375 C 19.90625 -8.820312 20.0625 -9.835938 20.0625 -10.390625 C 20.0625 -10.765625 19.929688 -10.953125 19.671875 -10.953125 C 19.367188 -10.953125 18.9375 -10.5625 18.375 -9.78125 C 17.8125 -9 17.25 -7.96875 16.6875 -6.6875 C 16.132812 -5.40625 15.679688 -4.050781 15.328125 -2.625 C 15.066406 -1.5 14.769531 -0.75 14.4375 -0.375 C 14.101562 -0.0078125 13.5625 0.171875 12.8125 0.171875 C 12.039062 0.171875 11.460938 -0.191406 11.078125 -0.921875 C 10.691406 -1.660156 10.5 -2.554688 10.5 -3.609375 C 10.5 -4.492188 10.613281 -5.773438 10.84375 -7.453125 C 11.03125 -8.941406 11.125 -9.921875 11.125 -10.390625 C 11.125 -10.765625 11 -10.953125 10.75 -10.953125 C 10.394531 -10.953125 9.945312 -10.53125 9.40625 -9.6875 C 8.875 -8.851562 8.359375 -7.78125 7.859375 -6.46875 C 7.359375 -5.164062 6.957031 -3.882812 6.65625 -2.625 C 6.394531 -1.53125 6.09375 -0.789062 5.75 -0.40625 C 5.414062 -0.0195312 4.890625 0.171875 4.171875 0.171875 Z M 4.171875 0.171875 "/></g></g></g><g fill="#2d3c5c" fill-opacity="1"><g transform="translate(137.109687, 338.494401)"><g><path d="M 20.375 -7.8125 C 20.675781 -7.8125 20.910156 -7.671875 21.078125 -7.390625 C 21.253906 -7.109375 21.34375 -6.722656 21.34375 -6.234375 C 21.34375 -5.296875 21.125 -4.570312 20.6875 -4.0625 C 19.6875 -2.820312 18.609375 -1.804688 17.453125 -1.015625 C 16.296875 -0.222656 14.984375 0.171875 13.515625 0.171875 C 12.273438 0.171875 11.269531 -0.269531 10.5 -1.15625 C 9.164062 -0.289062 7.773438 0.148438 6.328125 0.171875 C 6.023438 4.679688 5.335938 8.445312 4.265625 11.46875 C 3.191406 14.488281 1.617188 16 -0.453125 16 C -1.710938 16 -2.644531 15.539062 -3.25 14.625 C -3.863281 13.71875 -4.171875 12.457031 -4.171875 10.84375 C -4.171875 8.5625 -3.644531 5.894531 -2.59375 2.84375 C -1.539062 -0.195312 0.0820312 -3.546875 2.28125 -7.203125 C 2.28125 -10.609375 2.253906 -12.976562 2.203125 -14.3125 C 2.179688 -14.988281 2.445312 -15.523438 3 -15.921875 C 3.5625 -16.316406 4.265625 -16.515625 5.109375 -16.515625 C 5.597656 -16.515625 5.953125 -16.414062 6.171875 -16.21875 C 6.398438 -16.019531 6.523438 -15.628906 6.546875 -15.046875 C 6.546875 -14.460938 6.554688 -14.03125 6.578125 -13.75 C 7.328125 -14.6875 8.0625 -15.359375 8.78125 -15.765625 C 9.507812 -16.171875 10.28125 -16.375 11.09375 -16.375 C 12.40625 -16.375 13.472656 -15.847656 14.296875 -14.796875 C 15.128906 -13.753906 15.546875 -12.378906 15.546875 -10.671875 C 15.546875 -9.429688 15.34375 -8.226562 14.9375 -7.0625 C 14.539062 -5.894531 13.992188 -4.835938 13.296875 -3.890625 C 13.785156 -3.742188 14.195312 -3.671875 14.53125 -3.671875 C 15.300781 -3.671875 16.035156 -3.953125 16.734375 -4.515625 C 17.429688 -5.078125 18.328125 -6.007812 19.421875 -7.3125 C 19.703125 -7.644531 20.019531 -7.8125 20.375 -7.8125 Z M 6.515625 -3.1875 C 7.347656 -3.375 8.117188 -3.832031 8.828125 -4.5625 C 9.546875 -5.300781 10.113281 -6.210938 10.53125 -7.296875 C 10.957031 -8.378906 11.171875 -9.515625 11.171875 -10.703125 C 11.171875 -11.410156 11.03125 -11.941406 10.75 -12.296875 C 10.46875 -12.660156 10.09375 -12.84375 9.625 -12.84375 C 8.78125 -12.84375 7.765625 -11.957031 6.578125 -10.1875 C 6.554688 -9.15625 6.546875 -7.648438 6.546875 -5.671875 C 6.546875 -4.597656 6.535156 -3.769531 6.515625 -3.1875 Z M -0.171875 12.5625 C 0.453125 12.5625 0.972656 11.191406 1.390625 8.453125 C 1.816406 5.710938 2.085938 2.300781 2.203125 -1.78125 C 1.203125 0.550781 0.410156 2.773438 -0.171875 4.890625 C -0.753906 7.015625 -1.046875 8.800781 -1.046875 10.25 C -1.046875 11 -0.957031 11.570312 -0.78125 11.96875 C -0.613281 12.363281 -0.410156 12.5625 -0.171875 12.5625 Z M -0.171875 12.5625 "/></g></g></g><g fill="#2d3c5c" fill-opacity="1"><g transform="translate(153.94089, 338.494401)"><g><path d="M 6.265625 -18.625 C 5.285156 -18.625 4.550781 -18.847656 4.0625 -19.296875 C 3.570312 -19.753906 3.328125 -20.390625 3.328125 -21.203125 C 3.328125 -22.023438 3.644531 -22.707031 4.28125 -23.25 C 4.925781 -23.800781 5.726562 -24.078125 6.6875 -24.078125 C 7.550781 -24.078125 8.25 -23.863281 8.78125 -23.4375 C 9.320312 -23.019531 9.59375 -22.429688 9.59375 -21.671875 C 9.59375 -20.734375 9.285156 -19.988281 8.671875 -19.4375 C 8.066406 -18.894531 7.265625 -18.625 6.265625 -18.625 Z M 5.984375 0.171875 C 4.460938 0.171875 3.359375 -0.363281 2.671875 -1.4375 C 1.984375 -2.507812 1.640625 -3.929688 1.640625 -5.703125 C 1.640625 -6.753906 1.773438 -8.101562 2.046875 -9.75 C 2.316406 -11.394531 2.660156 -12.925781 3.078125 -14.34375 C 3.285156 -15.09375 3.5625 -15.609375 3.90625 -15.890625 C 4.257812 -16.171875 4.820312 -16.3125 5.59375 -16.3125 C 6.789062 -16.3125 7.390625 -15.914062 7.390625 -15.125 C 7.390625 -14.539062 7.164062 -13.1875 6.71875 -11.0625 C 6.15625 -8.488281 5.875 -6.75 5.875 -5.84375 C 5.875 -5.144531 5.96875 -4.609375 6.15625 -4.234375 C 6.34375 -3.859375 6.660156 -3.671875 7.109375 -3.671875 C 7.523438 -3.671875 8.046875 -3.960938 8.671875 -4.546875 C 9.304688 -5.128906 10.148438 -6.050781 11.203125 -7.3125 C 11.484375 -7.644531 11.796875 -7.8125 12.140625 -7.8125 C 12.441406 -7.8125 12.679688 -7.671875 12.859375 -7.390625 C 13.035156 -7.109375 13.125 -6.722656 13.125 -6.234375 C 13.125 -5.296875 12.898438 -4.570312 12.453125 -4.0625 C 10.148438 -1.238281 7.992188 0.171875 5.984375 0.171875 Z M 5.984375 0.171875 "/></g></g></g><g fill="#2d3c5c" fill-opacity="1"><g transform="translate(162.548941, 338.494401)"><g><path d="M 17.296875 -7.8125 C 17.597656 -7.8125 17.832031 -7.671875 18 -7.390625 C 18.175781 -7.109375 18.265625 -6.722656 18.265625 -6.234375 C 18.265625 -5.296875 18.046875 -4.570312 17.609375 -4.0625 C 16.742188 -3.007812 15.519531 -2.039062 13.9375 -1.15625 C 12.363281 -0.269531 10.679688 0.171875 8.890625 0.171875 C 6.441406 0.171875 4.539062 -0.488281 3.1875 -1.8125 C 1.832031 -3.144531 1.15625 -4.96875 1.15625 -7.28125 C 1.15625 -8.882812 1.492188 -10.378906 2.171875 -11.765625 C 2.847656 -13.160156 3.785156 -14.265625 4.984375 -15.078125 C 6.191406 -15.898438 7.550781 -16.3125 9.0625 -16.3125 C 10.414062 -16.3125 11.5 -15.90625 12.3125 -15.09375 C 13.132812 -14.289062 13.546875 -13.203125 13.546875 -11.828125 C 13.546875 -10.222656 12.96875 -8.84375 11.8125 -7.6875 C 10.65625 -6.53125 8.703125 -5.613281 5.953125 -4.9375 C 6.535156 -3.863281 7.644531 -3.328125 9.28125 -3.328125 C 10.320312 -3.328125 11.515625 -3.691406 12.859375 -4.421875 C 14.203125 -5.160156 15.363281 -6.125 16.34375 -7.3125 C 16.625 -7.644531 16.941406 -7.8125 17.296875 -7.8125 Z M 8.46875 -12.875 C 7.601562 -12.875 6.875 -12.375 6.28125 -11.375 C 5.6875 -10.375 5.390625 -9.160156 5.390625 -7.734375 L 5.390625 -7.671875 C 6.765625 -7.992188 7.847656 -8.476562 8.640625 -9.125 C 9.429688 -9.78125 9.828125 -10.539062 9.828125 -11.40625 C 9.828125 -11.851562 9.703125 -12.207031 9.453125 -12.46875 C 9.210938 -12.738281 8.882812 -12.875 8.46875 -12.875 Z M 9.390625 -18.625 C 9.054688 -18.625 8.765625 -18.742188 8.515625 -18.984375 C 8.273438 -19.234375 8.15625 -19.53125 8.15625 -19.875 C 8.15625 -20.039062 8.21875 -20.265625 8.34375 -20.546875 L 11.59375 -27.828125 C 11.800781 -28.296875 12.070312 -28.640625 12.40625 -28.859375 C 12.75 -29.078125 13.128906 -29.1875 13.546875 -29.1875 C 14.128906 -29.1875 14.648438 -28.976562 15.109375 -28.5625 C 15.566406 -28.144531 15.796875 -27.617188 15.796875 -26.984375 C 15.796875 -26.328125 15.535156 -25.675781 15.015625 -25.03125 L 10.5 -19.21875 C 10.195312 -18.820312 9.828125 -18.625 9.390625 -18.625 Z M 9.390625 -18.625 "/></g></g></g><g fill="#2d3c5c" fill-opacity="1"><g transform="translate(176.300835, 338.494401)"><g/></g></g><g fill="#2d3c5c" fill-opacity="1"><g transform="translate(185.583233, 338.494401)"><g><path d="M 28.8125 -20.859375 C 28.8125 -18.878906 28.296875 -17.0625 27.265625 -15.40625 C 26.234375 -13.75 24.738281 -12.394531 22.78125 -11.34375 C 20.820312 -10.289062 18.488281 -9.671875 15.78125 -9.484375 L 14.28125 -1.046875 C 13.695312 2.191406 12.109375 3.8125 9.515625 3.8125 C 8.097656 3.8125 6.785156 3.390625 5.578125 2.546875 C 4.378906 1.710938 3.414062 0.429688 2.6875 -1.296875 C 1.96875 -3.023438 1.609375 -5.148438 1.609375 -7.671875 C 1.609375 -12.398438 2.367188 -16.414062 3.890625 -19.71875 C 5.421875 -23.019531 7.476562 -25.492188 10.0625 -27.140625 C 12.644531 -28.785156 15.484375 -29.609375 18.578125 -29.609375 C 20.773438 -29.609375 22.632812 -29.222656 24.15625 -28.453125 C 25.6875 -27.679688 26.84375 -26.632812 27.625 -25.3125 C 28.414062 -24 28.8125 -22.515625 28.8125 -20.859375 Z M 16.421875 -13.09375 C 21.203125 -13.695312 23.59375 -16.179688 23.59375 -20.546875 C 23.59375 -22.085938 23.082031 -23.34375 22.0625 -24.3125 C 21.050781 -25.28125 19.484375 -25.765625 17.359375 -25.765625 C 14.953125 -25.765625 12.859375 -25.003906 11.078125 -23.484375 C 9.296875 -21.960938 7.921875 -19.851562 6.953125 -17.15625 C 5.984375 -14.46875 5.5 -11.394531 5.5 -7.9375 C 5.5 -6.5 5.644531 -5.21875 5.9375 -4.09375 C 6.226562 -2.976562 6.597656 -2.109375 7.046875 -1.484375 C 7.503906 -0.867188 7.941406 -0.5625 8.359375 -0.5625 C 8.941406 -0.5625 9.382812 -1.363281 9.6875 -2.96875 L 10.84375 -9.59375 C 9.9375 -9.726562 9.539062 -9.785156 9.65625 -9.765625 C 8.957031 -9.878906 8.503906 -10.09375 8.296875 -10.40625 C 8.085938 -10.726562 7.984375 -11.132812 7.984375 -11.625 C 7.984375 -12.132812 8.128906 -12.539062 8.421875 -12.84375 C 8.710938 -13.144531 9.113281 -13.296875 9.625 -13.296875 C 9.851562 -13.296875 10.03125 -13.285156 10.15625 -13.265625 C 10.707031 -13.171875 11.132812 -13.113281 11.4375 -13.09375 C 11.75 -14.90625 12.179688 -17.34375 12.734375 -20.40625 C 12.878906 -21.195312 13.203125 -21.757812 13.703125 -22.09375 C 14.203125 -22.4375 14.789062 -22.609375 15.46875 -22.609375 C 16.238281 -22.609375 16.789062 -22.460938 17.125 -22.171875 C 17.46875 -21.878906 17.640625 -21.421875 17.640625 -20.796875 C 17.640625 -20.421875 17.613281 -20.113281 17.5625 -19.875 Z M 16.421875 -13.09375 "/></g></g></g><g fill="#2d3c5c" fill-opacity="1"><g transform="translate(213.751868, 338.494401)"><g><path d="M 5.984375 0.171875 C 4.535156 0.171875 3.378906 -0.347656 2.515625 -1.390625 C 1.648438 -2.441406 1.21875 -3.820312 1.21875 -5.53125 C 1.21875 -7.394531 1.648438 -9.160156 2.515625 -10.828125 C 3.378906 -12.492188 4.53125 -13.832031 5.96875 -14.84375 C 7.40625 -15.863281 8.925781 -16.375 10.53125 -16.375 C 11.050781 -16.375 11.394531 -16.273438 11.5625 -16.078125 C 11.738281 -15.878906 11.882812 -15.523438 12 -15.015625 C 12.488281 -15.109375 13.003906 -15.15625 13.546875 -15.15625 C 14.691406 -15.15625 15.265625 -14.75 15.265625 -13.9375 C 15.265625 -13.4375 15.085938 -12.269531 14.734375 -10.4375 C 14.203125 -7.75 13.9375 -5.878906 13.9375 -4.828125 C 13.9375 -4.484375 14.019531 -4.203125 14.1875 -3.984375 C 14.363281 -3.773438 14.59375 -3.671875 14.875 -3.671875 C 15.320312 -3.671875 15.859375 -3.957031 16.484375 -4.53125 C 17.117188 -5.101562 17.972656 -6.03125 19.046875 -7.3125 C 19.316406 -7.644531 19.628906 -7.8125 19.984375 -7.8125 C 20.285156 -7.8125 20.523438 -7.671875 20.703125 -7.390625 C 20.878906 -7.109375 20.96875 -6.722656 20.96875 -6.234375 C 20.96875 -5.296875 20.742188 -4.570312 20.296875 -4.0625 C 19.335938 -2.875 18.320312 -1.867188 17.25 -1.046875 C 16.175781 -0.234375 15.140625 0.171875 14.140625 0.171875 C 13.367188 0.171875 12.660156 -0.0859375 12.015625 -0.609375 C 11.378906 -1.140625 10.894531 -1.859375 10.5625 -2.765625 C 9.351562 -0.804688 7.828125 0.171875 5.984375 0.171875 Z M 7.25 -3.359375 C 7.757812 -3.359375 8.25 -3.660156 8.71875 -4.265625 C 9.1875 -4.878906 9.523438 -5.6875 9.734375 -6.6875 L 11.03125 -13.125 C 10.050781 -13.101562 9.144531 -12.734375 8.3125 -12.015625 C 7.476562 -11.304688 6.816406 -10.367188 6.328125 -9.203125 C 5.835938 -8.035156 5.59375 -6.800781 5.59375 -5.5 C 5.59375 -4.769531 5.738281 -4.226562 6.03125 -3.875 C 6.320312 -3.53125 6.726562 -3.359375 7.25 -3.359375 Z M 7.25 -3.359375 "/></g></g></g><g fill="#2d3c5c" fill-opacity="1"><g transform="translate(230.198148, 338.494401)"><g><path d="M 17.296875 -7.8125 C 17.597656 -7.8125 17.832031 -7.671875 18 -7.390625 C 18.175781 -7.109375 18.265625 -6.722656 18.265625 -6.234375 C 18.265625 -5.296875 18.046875 -4.570312 17.609375 -4.0625 C 16.597656 -2.820312 15.5 -1.804688 14.3125 -1.015625 C 13.125 -0.222656 11.757812 0.171875 10.21875 0.171875 C 5.457031 0.171875 3.078125 -3.175781 3.078125 -9.875 C 3.078125 -10.894531 3.113281 -11.929688 3.1875 -12.984375 L 1.8125 -12.984375 C 1.113281 -12.984375 0.640625 -13.109375 0.390625 -13.359375 C 0.148438 -13.617188 0.03125 -14.03125 0.03125 -14.59375 C 0.03125 -15.90625 0.554688 -16.5625 1.609375 -16.5625 L 3.609375 -16.5625 C 4.003906 -19.125 4.609375 -21.46875 5.421875 -23.59375 C 6.242188 -25.71875 7.226562 -27.410156 8.375 -28.671875 C 9.53125 -29.929688 10.773438 -30.5625 12.109375 -30.5625 C 13.085938 -30.5625 13.859375 -30.128906 14.421875 -29.265625 C 14.984375 -28.398438 15.265625 -27.3125 15.265625 -26 C 15.265625 -22.382812 13.742188 -19.238281 10.703125 -16.5625 L 14.625 -16.5625 C 15 -16.5625 15.269531 -16.476562 15.4375 -16.3125 C 15.601562 -16.144531 15.6875 -15.84375 15.6875 -15.40625 C 15.6875 -13.789062 14.363281 -12.984375 11.71875 -12.984375 L 7.453125 -12.984375 C 7.410156 -11.816406 7.390625 -10.90625 7.390625 -10.25 C 7.390625 -7.820312 7.671875 -6.117188 8.234375 -5.140625 C 8.804688 -4.160156 9.710938 -3.671875 10.953125 -3.671875 C 11.953125 -3.671875 12.835938 -3.972656 13.609375 -4.578125 C 14.378906 -5.191406 15.289062 -6.101562 16.34375 -7.3125 C 16.625 -7.644531 16.941406 -7.8125 17.296875 -7.8125 Z M 11.171875 -27.1875 C 10.816406 -27.1875 10.421875 -26.75 9.984375 -25.875 C 9.554688 -25 9.148438 -23.785156 8.765625 -22.234375 C 8.378906 -20.691406 8.0625 -18.972656 7.8125 -17.078125 C 9.1875 -18.265625 10.21875 -19.597656 10.90625 -21.078125 C 11.59375 -22.566406 11.9375 -23.914062 11.9375 -25.125 C 11.9375 -26.5 11.679688 -27.1875 11.171875 -27.1875 Z M 11.171875 -27.1875 "/></g></g></g><g fill="#2d3c5c" fill-opacity="1"><g transform="translate(243.950043, 338.494401)"><g><path d="M 6.265625 -18.625 C 5.285156 -18.625 4.550781 -18.847656 4.0625 -19.296875 C 3.570312 -19.753906 3.328125 -20.390625 3.328125 -21.203125 C 3.328125 -22.023438 3.644531 -22.707031 4.28125 -23.25 C 4.925781 -23.800781 5.726562 -24.078125 6.6875 -24.078125 C 7.550781 -24.078125 8.25 -23.863281 8.78125 -23.4375 C 9.320312 -23.019531 9.59375 -22.429688 9.59375 -21.671875 C 9.59375 -20.734375 9.285156 -19.988281 8.671875 -19.4375 C 8.066406 -18.894531 7.265625 -18.625 6.265625 -18.625 Z M 5.984375 0.171875 C 4.460938 0.171875 3.359375 -0.363281 2.671875 -1.4375 C 1.984375 -2.507812 1.640625 -3.929688 1.640625 -5.703125 C 1.640625 -6.753906 1.773438 -8.101562 2.046875 -9.75 C 2.316406 -11.394531 2.660156 -12.925781 3.078125 -14.34375 C 3.285156 -15.09375 3.5625 -15.609375 3.90625 -15.890625 C 4.257812 -16.171875 4.820312 -16.3125 5.59375 -16.3125 C 6.789062 -16.3125 7.390625 -15.914062 7.390625 -15.125 C 7.390625 -14.539062 7.164062 -13.1875 6.71875 -11.0625 C 6.15625 -8.488281 5.875 -6.75 5.875 -5.84375 C 5.875 -5.144531 5.96875 -4.609375 6.15625 -4.234375 C 6.34375 -3.859375 6.660156 -3.671875 7.109375 -3.671875 C 7.523438 -3.671875 8.046875 -3.960938 8.671875 -4.546875 C 9.304688 -5.128906 10.148438 -6.050781 11.203125 -7.3125 C 11.484375 -7.644531 11.796875 -7.8125 12.140625 -7.8125 C 12.441406 -7.8125 12.679688 -7.671875 12.859375 -7.390625 C 13.035156 -7.109375 13.125 -6.722656 13.125 -6.234375 C 13.125 -5.296875 12.898438 -4.570312 12.453125 -4.0625 C 10.148438 -1.238281 7.992188 0.171875 5.984375 0.171875 Z M 5.984375 0.171875 "/></g></g></g><g fill="#2d3c5c" fill-opacity="1"><g transform="translate(252.558094, 338.494401)"><g><path d="M 8.1875 0.9375 C 6.976562 0.9375 6.050781 0.65625 5.40625 0.09375 C 4.757812 -0.457031 4.4375 -1.082031 4.4375 -1.78125 C 4.4375 -2.382812 4.660156 -2.910156 5.109375 -3.359375 C 5.554688 -3.804688 6.207031 -4.03125 7.0625 -4.03125 C 7.375 -4.03125 7.734375 -4 8.140625 -3.9375 C 8.546875 -3.875 8.851562 -3.832031 9.0625 -3.8125 C 9.039062 -4.414062 8.90625 -4.984375 8.65625 -5.515625 C 8.414062 -6.054688 8.109375 -6.578125 7.734375 -7.078125 C 7.359375 -7.585938 7.007812 -8.03125 6.6875 -8.40625 C 5.957031 -7.019531 5.238281 -5.875 4.53125 -4.96875 C 3.820312 -4.0625 3.046875 -3.195312 2.203125 -2.375 C 1.785156 -1.957031 1.34375 -1.75 0.875 -1.75 C 0.5 -1.75 0.195312 -1.882812 -0.03125 -2.15625 C -0.269531 -2.425781 -0.390625 -2.757812 -0.390625 -3.15625 C -0.390625 -3.613281 -0.222656 -4.039062 0.109375 -4.4375 L 0.5625 -5 C 1.84375 -6.59375 2.8125 -7.898438 3.46875 -8.921875 C 3.863281 -9.597656 4.328125 -10.5 4.859375 -11.625 C 5.398438 -12.757812 5.925781 -13.9375 6.4375 -15.15625 C 6.882812 -16.175781 7.804688 -16.6875 9.203125 -16.6875 C 9.859375 -16.6875 10.3125 -16.628906 10.5625 -16.515625 C 10.820312 -16.398438 10.953125 -16.210938 10.953125 -15.953125 C 10.953125 -15.816406 10.90625 -15.597656 10.8125 -15.296875 C 10.71875 -14.992188 10.59375 -14.691406 10.4375 -14.390625 C 10.007812 -13.546875 9.796875 -12.832031 9.796875 -12.25 C 9.796875 -11.894531 9.914062 -11.507812 10.15625 -11.09375 C 10.40625 -10.675781 10.789062 -10.148438 11.3125 -9.515625 C 12.050781 -8.535156 12.613281 -7.703125 13 -7.015625 C 13.382812 -6.328125 13.578125 -5.578125 13.578125 -4.765625 C 13.578125 -4.523438 13.554688 -4.195312 13.515625 -3.78125 C 14.648438 -4.21875 15.988281 -5.394531 17.53125 -7.3125 C 17.8125 -7.644531 18.128906 -7.8125 18.484375 -7.8125 C 18.785156 -7.8125 19.019531 -7.671875 19.1875 -7.390625 C 19.363281 -7.109375 19.453125 -6.722656 19.453125 -6.234375 C 19.453125 -5.347656 19.234375 -4.625 18.796875 -4.0625 C 17.628906 -2.613281 16.515625 -1.625 15.453125 -1.09375 C 14.390625 -0.570312 13.078125 -0.289062 11.515625 -0.25 C 10.578125 0.539062 9.46875 0.9375 8.1875 0.9375 Z M 8.1875 0.9375 "/></g></g></g><g fill="#2d3c5c" fill-opacity="1"><g transform="translate(267.499716, 338.494401)"><g><path d="M 8.1875 0.9375 C 6.976562 0.9375 6.050781 0.65625 5.40625 0.09375 C 4.757812 -0.457031 4.4375 -1.082031 4.4375 -1.78125 C 4.4375 -2.382812 4.660156 -2.910156 5.109375 -3.359375 C 5.554688 -3.804688 6.207031 -4.03125 7.0625 -4.03125 C 7.375 -4.03125 7.734375 -4 8.140625 -3.9375 C 8.546875 -3.875 8.851562 -3.832031 9.0625 -3.8125 C 9.039062 -4.414062 8.90625 -4.984375 8.65625 -5.515625 C 8.414062 -6.054688 8.109375 -6.578125 7.734375 -7.078125 C 7.359375 -7.585938 7.007812 -8.03125 6.6875 -8.40625 C 5.957031 -7.019531 5.238281 -5.875 4.53125 -4.96875 C 3.820312 -4.0625 3.046875 -3.195312 2.203125 -2.375 C 1.785156 -1.957031 1.34375 -1.75 0.875 -1.75 C 0.5 -1.75 0.195312 -1.882812 -0.03125 -2.15625 C -0.269531 -2.425781 -0.390625 -2.757812 -0.390625 -3.15625 C -0.390625 -3.613281 -0.222656 -4.039062 0.109375 -4.4375 L 0.5625 -5 C 1.84375 -6.59375 2.8125 -7.898438 3.46875 -8.921875 C 3.863281 -9.597656 4.328125 -10.5 4.859375 -11.625 C 5.398438 -12.757812 5.925781 -13.9375 6.4375 -15.15625 C 6.882812 -16.175781 7.804688 -16.6875 9.203125 -16.6875 C 9.859375 -16.6875 10.3125 -16.628906 10.5625 -16.515625 C 10.820312 -16.398438 10.953125 -16.210938 10.953125 -15.953125 C 10.953125 -15.816406 10.90625 -15.597656 10.8125 -15.296875 C 10.71875 -14.992188 10.59375 -14.691406 10.4375 -14.390625 C 10.007812 -13.546875 9.796875 -12.832031 9.796875 -12.25 C 9.796875 -11.894531 9.914062 -11.507812 10.15625 -11.09375 C 10.40625 -10.675781 10.789062 -10.148438 11.3125 -9.515625 C 12.050781 -8.535156 12.613281 -7.703125 13 -7.015625 C 13.382812 -6.328125 13.578125 -5.578125 13.578125 -4.765625 C 13.578125 -4.523438 13.554688 -4.195312 13.515625 -3.78125 C 14.648438 -4.21875 15.988281 -5.394531 17.53125 -7.3125 C 17.8125 -7.644531 18.128906 -7.8125 18.484375 -7.8125 C 18.785156 -7.8125 19.019531 -7.671875 19.1875 -7.390625 C 19.363281 -7.109375 19.453125 -6.722656 19.453125 -6.234375 C 19.453125 -5.347656 19.234375 -4.625 18.796875 -4.0625 C 17.628906 -2.613281 16.515625 -1.625 15.453125 -1.09375 C 14.390625 -0.570312 13.078125 -0.289062 11.515625 -0.25 C 10.578125 0.539062 9.46875 0.9375 8.1875 0.9375 Z M 8.1875 0.9375 "/></g></g></g><g fill="#2d3c5c" fill-opacity="1"><g transform="translate(282.441339, 338.494401)"><g><path d="M 6.265625 -18.625 C 5.285156 -18.625 4.550781 -18.847656 4.0625 -19.296875 C 3.570312 -19.753906 3.328125 -20.390625 3.328125 -21.203125 C 3.328125 -22.023438 3.644531 -22.707031 4.28125 -23.25 C 4.925781 -23.800781 5.726562 -24.078125 6.6875 -24.078125 C 7.550781 -24.078125 8.25 -23.863281 8.78125 -23.4375 C 9.320312 -23.019531 9.59375 -22.429688 9.59375 -21.671875 C 9.59375 -20.734375 9.285156 -19.988281 8.671875 -19.4375 C 8.066406 -18.894531 7.265625 -18.625 6.265625 -18.625 Z M 5.984375 0.171875 C 4.460938 0.171875 3.359375 -0.363281 2.671875 -1.4375 C 1.984375 -2.507812 1.640625 -3.929688 1.640625 -5.703125 C 1.640625 -6.753906 1.773438 -8.101562 2.046875 -9.75 C 2.316406 -11.394531 2.660156 -12.925781 3.078125 -14.34375 C 3.285156 -15.09375 3.5625 -15.609375 3.90625 -15.890625 C 4.257812 -16.171875 4.820312 -16.3125 5.59375 -16.3125 C 6.789062 -16.3125 7.390625 -15.914062 7.390625 -15.125 C 7.390625 -14.539062 7.164062 -13.1875 6.71875 -11.0625 C 6.15625 -8.488281 5.875 -6.75 5.875 -5.84375 C 5.875 -5.144531 5.96875 -4.609375 6.15625 -4.234375 C 6.34375 -3.859375 6.660156 -3.671875 7.109375 -3.671875 C 7.523438 -3.671875 8.046875 -3.960938 8.671875 -4.546875 C 9.304688 -5.128906 10.148438 -6.050781 11.203125 -7.3125 C 11.484375 -7.644531 11.796875 -7.8125 12.140625 -7.8125 C 12.441406 -7.8125 12.679688 -7.671875 12.859375 -7.390625 C 13.035156 -7.109375 13.125 -6.722656 13.125 -6.234375 C 13.125 -5.296875 12.898438 -4.570312 12.453125 -4.0625 C 10.148438 -1.238281 7.992188 0.171875 5.984375 0.171875 Z M 5.984375 0.171875 "/></g></g></g><g fill="#2d3c5c" fill-opacity="1"><g transform="translate(291.04939, 338.494401)"><g><path d="M 17.296875 -7.8125 C 17.597656 -7.8125 17.832031 -7.671875 18 -7.390625 C 18.175781 -7.109375 18.265625 -6.722656 18.265625 -6.234375 C 18.265625 -5.296875 18.046875 -4.570312 17.609375 -4.0625 C 16.742188 -3.007812 15.519531 -2.039062 13.9375 -1.15625 C 12.363281 -0.269531 10.679688 0.171875 8.890625 0.171875 C 6.441406 0.171875 4.539062 -0.488281 3.1875 -1.8125 C 1.832031 -3.144531 1.15625 -4.96875 1.15625 -7.28125 C 1.15625 -8.882812 1.492188 -10.378906 2.171875 -11.765625 C 2.847656 -13.160156 3.785156 -14.265625 4.984375 -15.078125 C 6.191406 -15.898438 7.550781 -16.3125 9.0625 -16.3125 C 10.414062 -16.3125 11.5 -15.90625 12.3125 -15.09375 C 13.132812 -14.289062 13.546875 -13.203125 13.546875 -11.828125 C 13.546875 -10.222656 12.96875 -8.84375 11.8125 -7.6875 C 10.65625 -6.53125 8.703125 -5.613281 5.953125 -4.9375 C 6.535156 -3.863281 7.644531 -3.328125 9.28125 -3.328125 C 10.320312 -3.328125 11.515625 -3.691406 12.859375 -4.421875 C 14.203125 -5.160156 15.363281 -6.125 16.34375 -7.3125 C 16.625 -7.644531 16.941406 -7.8125 17.296875 -7.8125 Z M 8.46875 -12.875 C 7.601562 -12.875 6.875 -12.375 6.28125 -11.375 C 5.6875 -10.375 5.390625 -9.160156 5.390625 -7.734375 L 5.390625 -7.671875 C 6.765625 -7.992188 7.847656 -8.476562 8.640625 -9.125 C 9.429688 -9.78125 9.828125 -10.539062 9.828125 -11.40625 C 9.828125 -11.851562 9.703125 -12.207031 9.453125 -12.46875 C 9.210938 -12.738281 8.882812 -12.875 8.46875 -12.875 Z M 8.46875 -12.875 "/></g></g></g><g fill="#2d3c5c" fill-opacity="1"><g transform="translate(304.801285, 338.494401)"><g><path d="M 4.171875 0.171875 C 3.273438 0.171875 2.644531 -0.289062 2.28125 -1.21875 C 1.925781 -2.15625 1.75 -3.648438 1.75 -5.703125 C 1.75 -8.734375 2.179688 -11.613281 3.046875 -14.34375 C 3.253906 -15.019531 3.597656 -15.515625 4.078125 -15.828125 C 4.554688 -16.148438 5.226562 -16.3125 6.09375 -16.3125 C 6.5625 -16.3125 6.882812 -16.25 7.0625 -16.125 C 7.25 -16.007812 7.34375 -15.789062 7.34375 -15.46875 C 7.34375 -15.09375 7.171875 -14.253906 6.828125 -12.953125 C 6.585938 -12.015625 6.398438 -11.195312 6.265625 -10.5 C 6.128906 -9.800781 6.015625 -8.9375 5.921875 -7.90625 C 6.679688 -9.914062 7.539062 -11.550781 8.5 -12.8125 C 9.457031 -14.070312 10.394531 -14.96875 11.3125 -15.5 C 12.238281 -16.039062 13.085938 -16.3125 13.859375 -16.3125 C 15.378906 -16.3125 16.140625 -15.550781 16.140625 -14.03125 C 16.140625 -13.726562 16.03125 -12.992188 15.8125 -11.828125 C 15.632812 -10.898438 15.546875 -10.316406 15.546875 -10.078125 C 15.546875 -9.265625 15.835938 -8.859375 16.421875 -8.859375 C 17.066406 -8.859375 17.90625 -9.367188 18.9375 -10.390625 C 19.238281 -10.691406 19.550781 -10.84375 19.875 -10.84375 C 20.175781 -10.84375 20.414062 -10.707031 20.59375 -10.4375 C 20.769531 -10.175781 20.859375 -9.820312 20.859375 -9.375 C 20.859375 -8.507812 20.625 -7.832031 20.15625 -7.34375 C 19.507812 -6.664062 18.75 -6.085938 17.875 -5.609375 C 17 -5.140625 16.066406 -4.90625 15.078125 -4.90625 C 13.847656 -4.90625 12.910156 -5.21875 12.265625 -5.84375 C 11.628906 -6.476562 11.3125 -7.332031 11.3125 -8.40625 C 11.3125 -8.75 11.34375 -9.097656 11.40625 -9.453125 C 11.457031 -9.921875 11.484375 -10.234375 11.484375 -10.390625 C 11.484375 -10.765625 11.351562 -10.953125 11.09375 -10.953125 C 10.738281 -10.953125 10.273438 -10.5625 9.703125 -9.78125 C 9.140625 -9 8.578125 -7.96875 8.015625 -6.6875 C 7.453125 -5.40625 7 -4.050781 6.65625 -2.625 C 6.394531 -1.53125 6.09375 -0.789062 5.75 -0.40625 C 5.414062 -0.0195312 4.890625 0.171875 4.171875 0.171875 Z M 4.171875 0.171875 "/></g></g></g><g fill="#2d3c5c" fill-opacity="1"><g transform="translate(320.722693, 338.494401)"><g><path d="M 17.296875 -7.8125 C 17.597656 -7.8125 17.832031 -7.671875 18 -7.390625 C 18.175781 -7.109375 18.265625 -6.722656 18.265625 -6.234375 C 18.265625 -5.296875 18.046875 -4.570312 17.609375 -4.0625 C 16.742188 -3.007812 15.519531 -2.039062 13.9375 -1.15625 C 12.363281 -0.269531 10.679688 0.171875 8.890625 0.171875 C 6.441406 0.171875 4.539062 -0.488281 3.1875 -1.8125 C 1.832031 -3.144531 1.15625 -4.96875 1.15625 -7.28125 C 1.15625 -8.882812 1.492188 -10.378906 2.171875 -11.765625 C 2.847656 -13.160156 3.785156 -14.265625 4.984375 -15.078125 C 6.191406 -15.898438 7.550781 -16.3125 9.0625 -16.3125 C 10.414062 -16.3125 11.5 -15.90625 12.3125 -15.09375 C 13.132812 -14.289062 13.546875 -13.203125 13.546875 -11.828125 C 13.546875 -10.222656 12.96875 -8.84375 11.8125 -7.6875 C 10.65625 -6.53125 8.703125 -5.613281 5.953125 -4.9375 C 6.535156 -3.863281 7.644531 -3.328125 9.28125 -3.328125 C 10.320312 -3.328125 11.515625 -3.691406 12.859375 -4.421875 C 14.203125 -5.160156 15.363281 -6.125 16.34375 -7.3125 C 16.625 -7.644531 16.941406 -7.8125 17.296875 -7.8125 Z M 8.46875 -12.875 C 7.601562 -12.875 6.875 -12.375 6.28125 -11.375 C 5.6875 -10.375 5.390625 -9.160156 5.390625 -7.734375 L 5.390625 -7.671875 C 6.765625 -7.992188 7.847656 -8.476562 8.640625 -9.125 C 9.429688 -9.78125 9.828125 -10.539062 9.828125 -11.40625 C 9.828125 -11.851562 9.703125 -12.207031 9.453125 -12.46875 C 9.210938 -12.738281 8.882812 -12.875 8.46875 -12.875 Z M 8.46875 -12.875 "/></g></g></g><g fill="#2d3c5c" fill-opacity="1"><g transform="translate(334.481661, 338.494401)"><g/></g></g></svg>